<?xml version="1.0" encoding="utf-8" standalone="no"?>
<!DOCTYPE svg PUBLIC "-//W3C//DTD SVG 1.1//EN"
  "http://www.w3.org/Graphics/SVG/1.1/DTD/svg11.dtd">
<svg xmlns:xlink="http://www.w3.org/1999/xlink" width="565pt" height="437pt" viewBox="0 0 565 437" xmlns="http://www.w3.org/2000/svg" version="1.1">
 <metadata>
  <rdf:RDF xmlns:dc="http://purl.org/dc/elements/1.1/" xmlns:cc="http://creativecommons.org/ns#" xmlns:rdf="http://www.w3.org/1999/02/22-rdf-syntax-ns#">
   <cc:Work>
    <dc:type rdf:resource="http://purl.org/dc/dcmitype/StillImage"/>
    <dc:date>2025-08-26T19:58:27.524000</dc:date>
    <dc:format>image/svg+xml</dc:format>
    <dc:creator>
     <cc:Agent>
      <dc:title>Matplotlib v3.8.4, https://matplotlib.org/</dc:title>
     </cc:Agent>
    </dc:creator>
   </cc:Work>
  </rdf:RDF>
 </metadata>
 <defs>
  <style type="text/css">*{stroke-linejoin: round; stroke-linecap: butt}</style>
 </defs>
 <g id="figure_1">
  <g id="patch_1">
   <path d="M 0 437 
L 565 437 
L 565 0 
L 0 0 
z
" style="fill: #ffffff"/>
  </g>
  <g id="axes_1">
   <g id="patch_2">
    <path d="M 70.625 388.93 
L 508.5 388.93 
L 508.5 52.44 
L 70.625 52.44 
z
" style="fill: #ffffff"/>
   </g>
   <g id="PathCollection_1">
    <defs>
     <path id="m5aaf6a0911" d="M 0 3 
C 0.795609 3 1.55874 2.683901 2.12132 2.12132 
C 2.683901 1.55874 3 0.795609 3 0 
C 3 -0.795609 2.683901 -1.55874 2.12132 -2.12132 
C 1.55874 -2.683901 0.795609 -3 0 -3 
C -0.795609 -3 -1.55874 -2.683901 -2.12132 -2.12132 
C -2.683901 -1.55874 -3 -0.795609 -3 0 
C -3 0.795609 -2.683901 1.55874 -2.12132 2.12132 
C -1.55874 2.683901 -0.795609 3 0 3 
z
" style="stroke: #1f77b4"/>
    </defs>
    <g clip-path="url(#pe74ecfd7de)">
     <use xlink:href="#m5aaf6a0911" x="100.096157" y="343.642711" style="fill: #1f77b4; stroke: #1f77b4"/>
     <use xlink:href="#m5aaf6a0911" x="91.555201" y="111.709459" style="fill: #1f77b4; stroke: #1f77b4"/>
     <use xlink:href="#m5aaf6a0911" x="100.531907" y="141.039997" style="fill: #1f77b4; stroke: #1f77b4"/>
     <use xlink:href="#m5aaf6a0911" x="94.218065" y="351.448533" style="fill: #1f77b4; stroke: #1f77b4"/>
     <use xlink:href="#m5aaf6a0911" x="102.635856" y="119.557975" style="fill: #1f77b4; stroke: #1f77b4"/>
     <use xlink:href="#m5aaf6a0911" x="96.63751" y="77.469152" style="fill: #1f77b4; stroke: #1f77b4"/>
     <use xlink:href="#m5aaf6a0911" x="92.94378" y="87.473697" style="fill: #1f77b4; stroke: #1f77b4"/>
     <use xlink:href="#m5aaf6a0911" x="90.682081" y="117.316559" style="fill: #1f77b4; stroke: #1f77b4"/>
     <use xlink:href="#m5aaf6a0911" x="135.890562" y="199.665493" style="fill: #1f77b4; stroke: #1f77b4"/>
     <use xlink:href="#m5aaf6a0911" x="93.605708" y="90.234553" style="fill: #1f77b4; stroke: #1f77b4"/>
     <use xlink:href="#m5aaf6a0911" x="92.907107" y="251.851364" style="fill: #1f77b4; stroke: #1f77b4"/>
     <use xlink:href="#m5aaf6a0911" x="93.22135" y="189.049006" style="fill: #1f77b4; stroke: #1f77b4"/>
     <use xlink:href="#m5aaf6a0911" x="91.842524" y="122.88808" style="fill: #1f77b4; stroke: #1f77b4"/>
     <use xlink:href="#m5aaf6a0911" x="90.96303" y="294.545014" style="fill: #1f77b4; stroke: #1f77b4"/>
     <use xlink:href="#m5aaf6a0911" x="147.834963" y="140.406707" style="fill: #1f77b4; stroke: #1f77b4"/>
     <use xlink:href="#m5aaf6a0911" x="92.679024" y="136.030608" style="fill: #1f77b4; stroke: #1f77b4"/>
     <use xlink:href="#m5aaf6a0911" x="94.79343" y="283.394856" style="fill: #1f77b4; stroke: #1f77b4"/>
     <use xlink:href="#m5aaf6a0911" x="93.001362" y="302.713732" style="fill: #1f77b4; stroke: #1f77b4"/>
     <use xlink:href="#m5aaf6a0911" x="94.734754" y="230.540117" style="fill: #1f77b4; stroke: #1f77b4"/>
     <use xlink:href="#m5aaf6a0911" x="95.810906" y="296.665465" style="fill: #1f77b4; stroke: #1f77b4"/>
     <use xlink:href="#m5aaf6a0911" x="100.549093" y="81.610436" style="fill: #1f77b4; stroke: #1f77b4"/>
     <use xlink:href="#m5aaf6a0911" x="91.787226" y="337.146161" style="fill: #1f77b4; stroke: #1f77b4"/>
     <use xlink:href="#m5aaf6a0911" x="93.559389" y="295.092916" style="fill: #1f77b4; stroke: #1f77b4"/>
     <use xlink:href="#m5aaf6a0911" x="95.384739" y="96.553214" style="fill: #1f77b4; stroke: #1f77b4"/>
     <use xlink:href="#m5aaf6a0911" x="488.596591" y="136.343695" style="fill: #1f77b4; stroke: #1f77b4"/>
     <use xlink:href="#m5aaf6a0911" x="103.821055" y="136.856019" style="fill: #1f77b4; stroke: #1f77b4"/>
     <use xlink:href="#m5aaf6a0911" x="90.682802" y="191.90948" style="fill: #1f77b4; stroke: #1f77b4"/>
     <use xlink:href="#m5aaf6a0911" x="109.973816" y="324.900199" style="fill: #1f77b4; stroke: #1f77b4"/>
     <use xlink:href="#m5aaf6a0911" x="91.61561" y="261.85591" style="fill: #1f77b4; stroke: #1f77b4"/>
     <use xlink:href="#m5aaf6a0911" x="91.71623" y="94.923739" style="fill: #1f77b4; stroke: #1f77b4"/>
     <use xlink:href="#m5aaf6a0911" x="95.906648" y="311.622474" style="fill: #1f77b4; stroke: #1f77b4"/>
     <use xlink:href="#m5aaf6a0911" x="91.824746" y="116.512495" style="fill: #1f77b4; stroke: #1f77b4"/>
     <use xlink:href="#m5aaf6a0911" x="93.915098" y="98.545584" style="fill: #1f77b4; stroke: #1f77b4"/>
     <use xlink:href="#m5aaf6a0911" x="93.556351" y="111.261176" style="fill: #1f77b4; stroke: #1f77b4"/>
     <use xlink:href="#m5aaf6a0911" x="92.119054" y="98.125763" style="fill: #1f77b4; stroke: #1f77b4"/>
     <use xlink:href="#m5aaf6a0911" x="90.618016" y="265.634298" style="fill: #1f77b4; stroke: #1f77b4"/>
     <use xlink:href="#m5aaf6a0911" x="93.281875" y="141.509627" style="fill: #1f77b4; stroke: #1f77b4"/>
     <use xlink:href="#m5aaf6a0911" x="94.621181" y="121.877663" style="fill: #1f77b4; stroke: #1f77b4"/>
     <use xlink:href="#m5aaf6a0911" x="114.701115" y="147.892327" style="fill: #1f77b4; stroke: #1f77b4"/>
     <use xlink:href="#m5aaf6a0911" x="92.56334" y="144.049899" style="fill: #1f77b4; stroke: #1f77b4"/>
     <use xlink:href="#m5aaf6a0911" x="90.634569" y="288.489631" style="fill: #1f77b4; stroke: #1f77b4"/>
     <use xlink:href="#m5aaf6a0911" x="91.949518" y="242.515686" style="fill: #1f77b4; stroke: #1f77b4"/>
     <use xlink:href="#m5aaf6a0911" x="113.568137" y="278.755479" style="fill: #1f77b4; stroke: #1f77b4"/>
     <use xlink:href="#m5aaf6a0911" x="92.049716" y="91.145351" style="fill: #1f77b4; stroke: #1f77b4"/>
     <use xlink:href="#m5aaf6a0911" x="108.910222" y="81.581974" style="fill: #1f77b4; stroke: #1f77b4"/>
     <use xlink:href="#m5aaf6a0911" x="90.907398" y="251.801555" style="fill: #1f77b4; stroke: #1f77b4"/>
     <use xlink:href="#m5aaf6a0911" x="90.977892" y="232.49691" style="fill: #1f77b4; stroke: #1f77b4"/>
     <use xlink:href="#m5aaf6a0911" x="115.34614" y="90.4836" style="fill: #1f77b4; stroke: #1f77b4"/>
     <use xlink:href="#m5aaf6a0911" x="97.373927" y="228.412551" style="fill: #1f77b4; stroke: #1f77b4"/>
     <use xlink:href="#m5aaf6a0911" x="93.700529" y="89.935698" style="fill: #1f77b4; stroke: #1f77b4"/>
     <use xlink:href="#m5aaf6a0911" x="94.264092" y="155.570069" style="fill: #1f77b4; stroke: #1f77b4"/>
     <use xlink:href="#m5aaf6a0911" x="93.471534" y="256.981718" style="fill: #1f77b4; stroke: #1f77b4"/>
     <use xlink:href="#m5aaf6a0911" x="90.912583" y="325.426754" style="fill: #1f77b4; stroke: #1f77b4"/>
     <use xlink:href="#m5aaf6a0911" x="93.035269" y="222.051197" style="fill: #1f77b4; stroke: #1f77b4"/>
     <use xlink:href="#m5aaf6a0911" x="92.727604" y="156.004121" style="fill: #1f77b4; stroke: #1f77b4"/>
     <use xlink:href="#m5aaf6a0911" x="92.575635" y="70.545665" style="fill: #1f77b4; stroke: #1f77b4"/>
     <use xlink:href="#m5aaf6a0911" x="93.474038" y="133.661111" style="fill: #1f77b4; stroke: #1f77b4"/>
     <use xlink:href="#m5aaf6a0911" x="90.559311" y="73.754805" style="fill: #1f77b4; stroke: #1f77b4"/>
     <use xlink:href="#m5aaf6a0911" x="425.711972" y="195.139966" style="fill: #1f77b4; stroke: #1f77b4"/>
     <use xlink:href="#m5aaf6a0911" x="157.960046" y="152.787866" style="fill: #1f77b4; stroke: #1f77b4"/>
     <use xlink:href="#m5aaf6a0911" x="111.437135" y="150.553565" style="fill: #1f77b4; stroke: #1f77b4"/>
     <use xlink:href="#m5aaf6a0911" x="98.77067" y="231.806696" style="fill: #1f77b4; stroke: #1f77b4"/>
     <use xlink:href="#m5aaf6a0911" x="91.708743" y="94.190832" style="fill: #1f77b4; stroke: #1f77b4"/>
     <use xlink:href="#m5aaf6a0911" x="92.408456" y="80.9558" style="fill: #1f77b4; stroke: #1f77b4"/>
     <use xlink:href="#m5aaf6a0911" x="108.023748" y="82.371806" style="fill: #1f77b4; stroke: #1f77b4"/>
     <use xlink:href="#m5aaf6a0911" x="91.307513" y="139.147245" style="fill: #1f77b4; stroke: #1f77b4"/>
     <use xlink:href="#m5aaf6a0911" x="128.952475" y="67.735" style="fill: #1f77b4; stroke: #1f77b4"/>
     <use xlink:href="#m5aaf6a0911" x="92.295695" y="139.374944" style="fill: #1f77b4; stroke: #1f77b4"/>
     <use xlink:href="#m5aaf6a0911" x="101.219352" y="270.480027" style="fill: #1f77b4; stroke: #1f77b4"/>
     <use xlink:href="#m5aaf6a0911" x="97.503263" y="176.6465" style="fill: #1f77b4; stroke: #1f77b4"/>
     <use xlink:href="#m5aaf6a0911" x="105.275445" y="96.055121" style="fill: #1f77b4; stroke: #1f77b4"/>
     <use xlink:href="#m5aaf6a0911" x="91.224616" y="103.419776" style="fill: #1f77b4; stroke: #1f77b4"/>
     <use xlink:href="#m5aaf6a0911" x="91.652041" y="143.231604" style="fill: #1f77b4; stroke: #1f77b4"/>
     <use xlink:href="#m5aaf6a0911" x="91.0758" y="352.437603" style="fill: #1f77b4; stroke: #1f77b4"/>
     <use xlink:href="#m5aaf6a0911" x="91.432448" y="330.478836" style="fill: #1f77b4; stroke: #1f77b4"/>
     <use xlink:href="#m5aaf6a0911" x="92.29078" y="129.292127" style="fill: #1f77b4; stroke: #1f77b4"/>
     <use xlink:href="#m5aaf6a0911" x="96.25513" y="232.532488" style="fill: #1f77b4; stroke: #1f77b4"/>
     <use xlink:href="#m5aaf6a0911" x="94.491781" y="311.800364" style="fill: #1f77b4; stroke: #1f77b4"/>
     <use xlink:href="#m5aaf6a0911" x="97.962039" y="127.235716" style="fill: #1f77b4; stroke: #1f77b4"/>
     <use xlink:href="#m5aaf6a0911" x="94.100717" y="267.939755" style="fill: #1f77b4; stroke: #1f77b4"/>
     <use xlink:href="#m5aaf6a0911" x="91.455431" y="198.939701" style="fill: #1f77b4; stroke: #1f77b4"/>
     <use xlink:href="#m5aaf6a0911" x="90.845812" y="137.482192" style="fill: #1f77b4; stroke: #1f77b4"/>
     <use xlink:href="#m5aaf6a0911" x="123.286437" y="113.331818" style="fill: #1f77b4; stroke: #1f77b4"/>
     <use xlink:href="#m5aaf6a0911" x="91.335892" y="180.161611" style="fill: #1f77b4; stroke: #1f77b4"/>
     <use xlink:href="#m5aaf6a0911" x="90.674885" y="125.086803" style="fill: #1f77b4; stroke: #1f77b4"/>
     <use xlink:href="#m5aaf6a0911" x="100.659906" y="149.130443" style="fill: #1f77b4; stroke: #1f77b4"/>
     <use xlink:href="#m5aaf6a0911" x="96.491831" y="356.066563" style="fill: #1f77b4; stroke: #1f77b4"/>
     <use xlink:href="#m5aaf6a0911" x="104.888148" y="213.8469" style="fill: #1f77b4; stroke: #1f77b4"/>
     <use xlink:href="#m5aaf6a0911" x="91.08861" y="279.047219" style="fill: #1f77b4; stroke: #1f77b4"/>
     <use xlink:href="#m5aaf6a0911" x="99.193999" y="201.636517" style="fill: #1f77b4; stroke: #1f77b4"/>
     <use xlink:href="#m5aaf6a0911" x="95.471048" y="87.950443" style="fill: #1f77b4; stroke: #1f77b4"/>
     <use xlink:href="#m5aaf6a0911" x="91.710761" y="84.805344" style="fill: #1f77b4; stroke: #1f77b4"/>
     <use xlink:href="#m5aaf6a0911" x="92.181621" y="136.784863" style="fill: #1f77b4; stroke: #1f77b4"/>
     <use xlink:href="#m5aaf6a0911" x="94.361289" y="250.862295" style="fill: #1f77b4; stroke: #1f77b4"/>
     <use xlink:href="#m5aaf6a0911" x="131.235906" y="322.075302" style="fill: #1f77b4; stroke: #1f77b4"/>
     <use xlink:href="#m5aaf6a0911" x="91.865388" y="84.862269" style="fill: #1f77b4; stroke: #1f77b4"/>
     <use xlink:href="#m5aaf6a0911" x="91.435756" y="117.28098" style="fill: #1f77b4; stroke: #1f77b4"/>
     <use xlink:href="#m5aaf6a0911" x="141.573265" y="189.554214" style="fill: #1f77b4; stroke: #1f77b4"/>
     <use xlink:href="#m5aaf6a0911" x="91.44701" y="118.013888" style="fill: #1f77b4; stroke: #1f77b4"/>
     <use xlink:href="#m5aaf6a0911" x="92.481056" y="144.946465" style="fill: #1f77b4; stroke: #1f77b4"/>
     <use xlink:href="#m5aaf6a0911" x="99.125454" y="147.301732" style="fill: #1f77b4; stroke: #1f77b4"/>
     <use xlink:href="#m5aaf6a0911" x="117.96563" y="145.401864" style="fill: #1f77b4; stroke: #1f77b4"/>
     <use xlink:href="#m5aaf6a0911" x="102.097337" y="117.828882" style="fill: #1f77b4; stroke: #1f77b4"/>
     <use xlink:href="#m5aaf6a0911" x="93.681371" y="99.790815" style="fill: #1f77b4; stroke: #1f77b4"/>
     <use xlink:href="#m5aaf6a0911" x="91.658445" y="95.179901" style="fill: #1f77b4; stroke: #1f77b4"/>
     <use xlink:href="#m5aaf6a0911" x="90.709109" y="111.574263" style="fill: #1f77b4; stroke: #1f77b4"/>
     <use xlink:href="#m5aaf6a0911" x="97.193599" y="139.794765" style="fill: #1f77b4; stroke: #1f77b4"/>
     <use xlink:href="#m5aaf6a0911" x="93.143286" y="326.465633" style="fill: #1f77b4; stroke: #1f77b4"/>
     <use xlink:href="#m5aaf6a0911" x="90.528409" y="189.234011" style="fill: #1f77b4; stroke: #1f77b4"/>
     <use xlink:href="#m5aaf6a0911" x="98.801284" y="137.652967" style="fill: #1f77b4; stroke: #1f77b4"/>
     <use xlink:href="#m5aaf6a0911" x="94.171877" y="206.781101" style="fill: #1f77b4; stroke: #1f77b4"/>
     <use xlink:href="#m5aaf6a0911" x="93.532657" y="128.936347" style="fill: #1f77b4; stroke: #1f77b4"/>
     <use xlink:href="#m5aaf6a0911" x="92.323281" y="352.608378" style="fill: #1f77b4; stroke: #1f77b4"/>
     <use xlink:href="#m5aaf6a0911" x="91.842769" y="86.456165" style="fill: #1f77b4; stroke: #1f77b4"/>
     <use xlink:href="#m5aaf6a0911" x="92.112829" y="124.23293" style="fill: #1f77b4; stroke: #1f77b4"/>
     <use xlink:href="#m5aaf6a0911" x="91.074772" y="101.0147" style="fill: #1f77b4; stroke: #1f77b4"/>
     <use xlink:href="#m5aaf6a0911" x="93.221236" y="312.825012" style="fill: #1f77b4; stroke: #1f77b4"/>
     <use xlink:href="#m5aaf6a0911" x="103.751699" y="304.428594" style="fill: #1f77b4; stroke: #1f77b4"/>
     <use xlink:href="#m5aaf6a0911" x="102.680015" y="79.561141" style="fill: #1f77b4; stroke: #1f77b4"/>
     <use xlink:href="#m5aaf6a0911" x="96.620622" y="140.364014" style="fill: #1f77b4; stroke: #1f77b4"/>
     <use xlink:href="#m5aaf6a0911" x="103.236966" y="238.844032" style="fill: #1f77b4; stroke: #1f77b4"/>
     <use xlink:href="#m5aaf6a0911" x="90.810242" y="373.635" style="fill: #1f77b4; stroke: #1f77b4"/>
     <use xlink:href="#m5aaf6a0911" x="93.194762" y="79.966731" style="fill: #1f77b4; stroke: #1f77b4"/>
     <use xlink:href="#m5aaf6a0911" x="92.749009" y="74.153279" style="fill: #1f77b4; stroke: #1f77b4"/>
     <use xlink:href="#m5aaf6a0911" x="96.299539" y="127.933046" style="fill: #1f77b4; stroke: #1f77b4"/>
     <use xlink:href="#m5aaf6a0911" x="97.464789" y="97.641902" style="fill: #1f77b4; stroke: #1f77b4"/>
     <use xlink:href="#m5aaf6a0911" x="101.983032" y="281.815191" style="fill: #1f77b4; stroke: #1f77b4"/>
     <use xlink:href="#m5aaf6a0911" x="110.113116" y="153.029796" style="fill: #1f77b4; stroke: #1f77b4"/>
     <use xlink:href="#m5aaf6a0911" x="92.189538" y="239.811755" style="fill: #1f77b4; stroke: #1f77b4"/>
     <use xlink:href="#m5aaf6a0911" x="90.787158" y="158.700936" style="fill: #1f77b4; stroke: #1f77b4"/>
     <use xlink:href="#m5aaf6a0911" x="93.570666" y="129.49848" style="fill: #1f77b4; stroke: #1f77b4"/>
     <use xlink:href="#m5aaf6a0911" x="111.951921" y="144.768575" style="fill: #1f77b4; stroke: #1f77b4"/>
     <use xlink:href="#m5aaf6a0911" x="99.275095" y="288.752909" style="fill: #1f77b4; stroke: #1f77b4"/>
     <use xlink:href="#m5aaf6a0911" x="108.81733" y="90.348403" style="fill: #1f77b4; stroke: #1f77b4"/>
     <use xlink:href="#m5aaf6a0911" x="181.386416" y="98.766168" style="fill: #1f77b4; stroke: #1f77b4"/>
     <use xlink:href="#m5aaf6a0911" x="91.509" y="111.986968" style="fill: #1f77b4; stroke: #1f77b4"/>
     <use xlink:href="#m5aaf6a0911" x="98.343469" y="130.750827" style="fill: #1f77b4; stroke: #1f77b4"/>
     <use xlink:href="#m5aaf6a0911" x="116.210023" y="127.178792" style="fill: #1f77b4; stroke: #1f77b4"/>
     <use xlink:href="#m5aaf6a0911" x="91.681343" y="133.0634" style="fill: #1f77b4; stroke: #1f77b4"/>
     <use xlink:href="#m5aaf6a0911" x="97.174182" y="209.371183" style="fill: #1f77b4; stroke: #1f77b4"/>
     <use xlink:href="#m5aaf6a0911" x="94.014442" y="353.917649" style="fill: #1f77b4; stroke: #1f77b4"/>
     <use xlink:href="#m5aaf6a0911" x="94.185056" y="346.069134" style="fill: #1f77b4; stroke: #1f77b4"/>
    </g>
   </g>
   <g id="matplotlib.axis_1">
    <g id="xtick_1">
     <g id="line2d_1">
      <defs>
       <path id="md4c95c2ee6" d="M 0 0 
L 0 3.5 
" style="stroke: #000000; stroke-width: 0.8"/>
      </defs>
      <g>
       <use xlink:href="#md4c95c2ee6" x="90.468153" y="388.93" style="stroke: #000000; stroke-width: 0.8"/>
      </g>
     </g>
     <g id="text_1">
      <!-- 0 -->
      <g transform="translate(87.286903 403.528437) scale(0.1 -0.1)">
       <defs>
        <path id="DejaVuSans-30" d="M 2034 4250 
Q 1547 4250 1301 3770 
Q 1056 3291 1056 2328 
Q 1056 1369 1301 889 
Q 1547 409 2034 409 
Q 2525 409 2770 889 
Q 3016 1369 3016 2328 
Q 3016 3291 2770 3770 
Q 2525 4250 2034 4250 
z
M 2034 4750 
Q 2819 4750 3233 4129 
Q 3647 3509 3647 2328 
Q 3647 1150 3233 529 
Q 2819 -91 2034 -91 
Q 1250 -91 836 529 
Q 422 1150 422 2328 
Q 422 3509 836 4129 
Q 1250 4750 2034 4750 
z
" transform="scale(0.015625)"/>
       </defs>
       <use xlink:href="#DejaVuSans-30"/>
      </g>
     </g>
    </g>
    <g id="xtick_2">
     <g id="line2d_2">
      <g>
       <use xlink:href="#md4c95c2ee6" x="150.850885" y="388.93" style="stroke: #000000; stroke-width: 0.8"/>
      </g>
     </g>
     <g id="text_2">
      <!-- 200 -->
      <g transform="translate(141.307135 403.528437) scale(0.1 -0.1)">
       <defs>
        <path id="DejaVuSans-32" d="M 1228 531 
L 3431 531 
L 3431 0 
L 469 0 
L 469 531 
Q 828 903 1448 1529 
Q 2069 2156 2228 2338 
Q 2531 2678 2651 2914 
Q 2772 3150 2772 3378 
Q 2772 3750 2511 3984 
Q 2250 4219 1831 4219 
Q 1534 4219 1204 4116 
Q 875 4013 500 3803 
L 500 4441 
Q 881 4594 1212 4672 
Q 1544 4750 1819 4750 
Q 2544 4750 2975 4387 
Q 3406 4025 3406 3419 
Q 3406 3131 3298 2873 
Q 3191 2616 2906 2266 
Q 2828 2175 2409 1742 
Q 1991 1309 1228 531 
z
" transform="scale(0.015625)"/>
       </defs>
       <use xlink:href="#DejaVuSans-32"/>
       <use xlink:href="#DejaVuSans-30" x="63.623047"/>
       <use xlink:href="#DejaVuSans-30" x="127.246094"/>
      </g>
     </g>
    </g>
    <g id="xtick_3">
     <g id="line2d_3">
      <g>
       <use xlink:href="#md4c95c2ee6" x="211.233617" y="388.93" style="stroke: #000000; stroke-width: 0.8"/>
      </g>
     </g>
     <g id="text_3">
      <!-- 400 -->
      <g transform="translate(201.689867 403.528437) scale(0.1 -0.1)">
       <defs>
        <path id="DejaVuSans-34" d="M 2419 4116 
L 825 1625 
L 2419 1625 
L 2419 4116 
z
M 2253 4666 
L 3047 4666 
L 3047 1625 
L 3713 1625 
L 3713 1100 
L 3047 1100 
L 3047 0 
L 2419 0 
L 2419 1100 
L 313 1100 
L 313 1709 
L 2253 4666 
z
" transform="scale(0.015625)"/>
       </defs>
       <use xlink:href="#DejaVuSans-34"/>
       <use xlink:href="#DejaVuSans-30" x="63.623047"/>
       <use xlink:href="#DejaVuSans-30" x="127.246094"/>
      </g>
     </g>
    </g>
    <g id="xtick_4">
     <g id="line2d_4">
      <g>
       <use xlink:href="#md4c95c2ee6" x="271.616348" y="388.93" style="stroke: #000000; stroke-width: 0.8"/>
      </g>
     </g>
     <g id="text_4">
      <!-- 600 -->
      <g transform="translate(262.072598 403.528437) scale(0.1 -0.1)">
       <defs>
        <path id="DejaVuSans-36" d="M 2113 2584 
Q 1688 2584 1439 2293 
Q 1191 2003 1191 1497 
Q 1191 994 1439 701 
Q 1688 409 2113 409 
Q 2538 409 2786 701 
Q 3034 994 3034 1497 
Q 3034 2003 2786 2293 
Q 2538 2584 2113 2584 
z
M 3366 4563 
L 3366 3988 
Q 3128 4100 2886 4159 
Q 2644 4219 2406 4219 
Q 1781 4219 1451 3797 
Q 1122 3375 1075 2522 
Q 1259 2794 1537 2939 
Q 1816 3084 2150 3084 
Q 2853 3084 3261 2657 
Q 3669 2231 3669 1497 
Q 3669 778 3244 343 
Q 2819 -91 2113 -91 
Q 1303 -91 875 529 
Q 447 1150 447 2328 
Q 447 3434 972 4092 
Q 1497 4750 2381 4750 
Q 2619 4750 2861 4703 
Q 3103 4656 3366 4563 
z
" transform="scale(0.015625)"/>
       </defs>
       <use xlink:href="#DejaVuSans-36"/>
       <use xlink:href="#DejaVuSans-30" x="63.623047"/>
       <use xlink:href="#DejaVuSans-30" x="127.246094"/>
      </g>
     </g>
    </g>
    <g id="xtick_5">
     <g id="line2d_5">
      <g>
       <use xlink:href="#md4c95c2ee6" x="331.99908" y="388.93" style="stroke: #000000; stroke-width: 0.8"/>
      </g>
     </g>
     <g id="text_5">
      <!-- 800 -->
      <g transform="translate(322.45533 403.528437) scale(0.1 -0.1)">
       <defs>
        <path id="DejaVuSans-38" d="M 2034 2216 
Q 1584 2216 1326 1975 
Q 1069 1734 1069 1313 
Q 1069 891 1326 650 
Q 1584 409 2034 409 
Q 2484 409 2743 651 
Q 3003 894 3003 1313 
Q 3003 1734 2745 1975 
Q 2488 2216 2034 2216 
z
M 1403 2484 
Q 997 2584 770 2862 
Q 544 3141 544 3541 
Q 544 4100 942 4425 
Q 1341 4750 2034 4750 
Q 2731 4750 3128 4425 
Q 3525 4100 3525 3541 
Q 3525 3141 3298 2862 
Q 3072 2584 2669 2484 
Q 3125 2378 3379 2068 
Q 3634 1759 3634 1313 
Q 3634 634 3220 271 
Q 2806 -91 2034 -91 
Q 1263 -91 848 271 
Q 434 634 434 1313 
Q 434 1759 690 2068 
Q 947 2378 1403 2484 
z
M 1172 3481 
Q 1172 3119 1398 2916 
Q 1625 2713 2034 2713 
Q 2441 2713 2670 2916 
Q 2900 3119 2900 3481 
Q 2900 3844 2670 4047 
Q 2441 4250 2034 4250 
Q 1625 4250 1398 4047 
Q 1172 3844 1172 3481 
z
" transform="scale(0.015625)"/>
       </defs>
       <use xlink:href="#DejaVuSans-38"/>
       <use xlink:href="#DejaVuSans-30" x="63.623047"/>
       <use xlink:href="#DejaVuSans-30" x="127.246094"/>
      </g>
     </g>
    </g>
    <g id="xtick_6">
     <g id="line2d_6">
      <g>
       <use xlink:href="#md4c95c2ee6" x="392.381812" y="388.93" style="stroke: #000000; stroke-width: 0.8"/>
      </g>
     </g>
     <g id="text_6">
      <!-- 1000 -->
      <g transform="translate(379.656812 403.528437) scale(0.1 -0.1)">
       <defs>
        <path id="DejaVuSans-31" d="M 794 531 
L 1825 531 
L 1825 4091 
L 703 3866 
L 703 4441 
L 1819 4666 
L 2450 4666 
L 2450 531 
L 3481 531 
L 3481 0 
L 794 0 
L 794 531 
z
" transform="scale(0.015625)"/>
       </defs>
       <use xlink:href="#DejaVuSans-31"/>
       <use xlink:href="#DejaVuSans-30" x="63.623047"/>
       <use xlink:href="#DejaVuSans-30" x="127.246094"/>
       <use xlink:href="#DejaVuSans-30" x="190.869141"/>
      </g>
     </g>
    </g>
    <g id="xtick_7">
     <g id="line2d_7">
      <g>
       <use xlink:href="#md4c95c2ee6" x="452.764543" y="388.93" style="stroke: #000000; stroke-width: 0.8"/>
      </g>
     </g>
     <g id="text_7">
      <!-- 1200 -->
      <g transform="translate(440.039543 403.528437) scale(0.1 -0.1)">
       <use xlink:href="#DejaVuSans-31"/>
       <use xlink:href="#DejaVuSans-32" x="63.623047"/>
       <use xlink:href="#DejaVuSans-30" x="127.246094"/>
       <use xlink:href="#DejaVuSans-30" x="190.869141"/>
      </g>
     </g>
    </g>
   </g>
   <g id="matplotlib.axis_2">
    <g id="ytick_1">
     <g id="line2d_8">
      <defs>
       <path id="m4995e0fb31" d="M 0 0 
L -3.5 0 
" style="stroke: #000000; stroke-width: 0.8"/>
      </defs>
      <g>
       <use xlink:href="#m4995e0fb31" x="70.625" y="370.88126" style="stroke: #000000; stroke-width: 0.8"/>
      </g>
     </g>
     <g id="text_8">
      <!-- 40 -->
      <g transform="translate(50.9 374.680478) scale(0.1 -0.1)">
       <use xlink:href="#DejaVuSans-34"/>
       <use xlink:href="#DejaVuSans-30" x="63.623047"/>
      </g>
     </g>
    </g>
    <g id="ytick_2">
     <g id="line2d_9">
      <g>
       <use xlink:href="#m4995e0fb31" x="70.625" y="299.725177" style="stroke: #000000; stroke-width: 0.8"/>
      </g>
     </g>
     <g id="text_9">
      <!-- 50 -->
      <g transform="translate(50.9 303.524396) scale(0.1 -0.1)">
       <defs>
        <path id="DejaVuSans-35" d="M 691 4666 
L 3169 4666 
L 3169 4134 
L 1269 4134 
L 1269 2991 
Q 1406 3038 1543 3061 
Q 1681 3084 1819 3084 
Q 2600 3084 3056 2656 
Q 3513 2228 3513 1497 
Q 3513 744 3044 326 
Q 2575 -91 1722 -91 
Q 1428 -91 1123 -41 
Q 819 9 494 109 
L 494 744 
Q 775 591 1075 516 
Q 1375 441 1709 441 
Q 2250 441 2565 725 
Q 2881 1009 2881 1497 
Q 2881 1984 2565 2268 
Q 2250 2553 1709 2553 
Q 1456 2553 1204 2497 
Q 953 2441 691 2322 
L 691 4666 
z
" transform="scale(0.015625)"/>
       </defs>
       <use xlink:href="#DejaVuSans-35"/>
       <use xlink:href="#DejaVuSans-30" x="63.623047"/>
      </g>
     </g>
    </g>
    <g id="ytick_3">
     <g id="line2d_10">
      <g>
       <use xlink:href="#m4995e0fb31" x="70.625" y="228.569094" style="stroke: #000000; stroke-width: 0.8"/>
      </g>
     </g>
     <g id="text_10">
      <!-- 60 -->
      <g transform="translate(50.9 232.368313) scale(0.1 -0.1)">
       <use xlink:href="#DejaVuSans-36"/>
       <use xlink:href="#DejaVuSans-30" x="63.623047"/>
      </g>
     </g>
    </g>
    <g id="ytick_4">
     <g id="line2d_11">
      <g>
       <use xlink:href="#m4995e0fb31" x="70.625" y="157.413011" style="stroke: #000000; stroke-width: 0.8"/>
      </g>
     </g>
     <g id="text_11">
      <!-- 70 -->
      <g transform="translate(50.9 161.21223) scale(0.1 -0.1)">
       <defs>
        <path id="DejaVuSans-37" d="M 525 4666 
L 3525 4666 
L 3525 4397 
L 1831 0 
L 1172 0 
L 2766 4134 
L 525 4134 
L 525 4666 
z
" transform="scale(0.015625)"/>
       </defs>
       <use xlink:href="#DejaVuSans-37"/>
       <use xlink:href="#DejaVuSans-30" x="63.623047"/>
      </g>
     </g>
    </g>
    <g id="ytick_5">
     <g id="line2d_12">
      <g>
       <use xlink:href="#m4995e0fb31" x="70.625" y="86.256928" style="stroke: #000000; stroke-width: 0.8"/>
      </g>
     </g>
     <g id="text_12">
      <!-- 80 -->
      <g transform="translate(50.9 90.056147) scale(0.1 -0.1)">
       <use xlink:href="#DejaVuSans-38"/>
       <use xlink:href="#DejaVuSans-30" x="63.623047"/>
      </g>
     </g>
    </g>
   </g>
   <g id="patch_3">
    <path d="M 70.625 388.93 
L 70.625 52.44 
" style="fill: none; stroke: #000000; stroke-width: 0.8; stroke-linejoin: miter; stroke-linecap: square"/>
   </g>
   <g id="patch_4">
    <path d="M 508.5 388.93 
L 508.5 52.44 
" style="fill: none; stroke: #000000; stroke-width: 0.8; stroke-linejoin: miter; stroke-linecap: square"/>
   </g>
   <g id="patch_5">
    <path d="M 70.625 388.93 
L 508.5 388.93 
" style="fill: none; stroke: #000000; stroke-width: 0.8; stroke-linejoin: miter; stroke-linecap: square"/>
   </g>
   <g id="patch_6">
    <path d="M 70.625 52.44 
L 508.5 52.44 
" style="fill: none; stroke: #000000; stroke-width: 0.8; stroke-linejoin: miter; stroke-linecap: square"/>
   </g>
  </g>
 </g>
 <defs>
  <clipPath id="pe74ecfd7de">
   <rect x="70.625" y="52.44" width="437.875" height="336.49"/>
  </clipPath>
 </defs>
</svg>
